<svg viewBox="0 0 245 240" xmlns="http://www.w3.org/2000/svg" fill="rgb(251 191 36 / var(--tw-text-opacity, 1))">
  <path d="M104.4 104.3c-5.7 0-10.3 5-10.3 11.2s4.6 11.3 10.3 11.3c5.8 0 10.4-5.1 10.3-11.3 0-6.2-4.5-11.2-10.3-11.2zm36.2 0c-5.7 0-10.3 5-10.3 11.2s4.6 11.3 10.3 11.3c5.8 0 10.4-5.1 10.3-11.3 0-6.2-4.5-11.2-10.3-11.2z"></path>
  <path d="M189.5 20h-134C43.6 20 35 28.6 35 38.5v163c0 9.8 8.6 17.5 20.5 17.5h113l-5.3-18.4 12.8 11.9 12.1 11.2 21.5 19.2V38.5c0-9.8-8.6-18.5-20.1-18.5zM160.7 151s-5.1-6.1-9.3-11.4c18.5-5.3 25.5-17.1 25.5-17.1-5.8 3.9-11.3 6.6-16.2 8.5-7 3-13.7 4.9-20.2 6.1-13.3 2.5-25.5 1.8-35.9-.1-7.9-1.5-14.7-3.7-20.3-6.1-3.2-1.3-6.7-2.9-10.2-5-0.4-0.2-0.8-0.4-1.2-0.7-0.3-0.2-0.5-0.3-0.6-0.4-2.7-1.5-4.2-2.6-4.2-2.6s6.8 11.3 24.8 16.9c-4.2 5.3-9.4 11.6-9.4 11.6-31.1-1-42.9-21.4-42.9-21.4 0-45.3 20.3-81.9 20.3-81.9C76 42 95.6 42.3 95.6 42.3l1 1.2c-24.5 7-35.8 17.5-35.8 17.5s3-1.7 8-4.1c14.5-6.4 26-8.2 30.7-8.7 0.8-0.1 1.6-0.2 2.4-0.2 8.6-1.1 18.3-1.4 28.1-0.3 13.2 1.5 27.4 5.6 41.9 13.8 0 0-10.8-10.2-34.1-17.2l1.4-1.6s19.6-0.3 40.4 15c0 0 20.3 36.6 20.3 81.9 0 0-11.9 20.4-43 21.4z"></path>
</svg>
